<?xml version="1.0" encoding="UTF-8" standalone="no"?>
<!-- Created with Inkscape (http://www.inkscape.org/) -->

<svg
   width="210mm"
   height="297mm"
   viewBox="0 0 210 297"
   version="1.1"
   id="svg2921"
   inkscape:version="1.2 (dc2aedaf03, 2022-05-15)"
   sodipodi:docname="WreckingBall.svg"
   inkscape:export-filename="WreckingBall.png"
   inkscape:export-xdpi="79.641792"
   inkscape:export-ydpi="79.641792"
   xmlns:inkscape="http://www.inkscape.org/namespaces/inkscape"
   xmlns:sodipodi="http://sodipodi.sourceforge.net/DTD/sodipodi-0.dtd"
   xmlns="http://www.w3.org/2000/svg"
   xmlns:svg="http://www.w3.org/2000/svg">
  <sodipodi:namedview
     id="namedview2923"
     pagecolor="#e300f6"
     bordercolor="#000000"
     borderopacity="0.25"
     inkscape:showpageshadow="2"
     inkscape:pageopacity="0"
     inkscape:pagecheckerboard="0"
     inkscape:deskcolor="#d1d1d1"
     inkscape:document-units="mm"
     showgrid="false"
     inkscape:zoom="2.1770318"
     inkscape:cx="324.06509"
     inkscape:cy="517.44766"
     inkscape:window-width="1920"
     inkscape:window-height="1051"
     inkscape:window-x="-9"
     inkscape:window-y="-9"
     inkscape:window-maximized="1"
     inkscape:current-layer="layer1" />
  <defs
     id="defs2918" />
  <g
     inkscape:label="Warstwa 1"
     inkscape:groupmode="layer"
     id="layer1">
    <circle
       style="fill:#ffffff;stroke-width:0.264583"
       id="path3340"
       cx="92.554688"
       cy="118.85156"
       r="25.007812" />
    <rect
       style="fill:#ffffff;stroke-width:0.246958"
       id="rect3396-7-7-4-4"
       width="11.550668"
       height="11.550668"
       x="128.91246"
       y="-13.979446"
       transform="matrix(0.65275326,0.75757058,-0.65275326,0.75757058,0,0)" />
    <rect
       style="fill:#ffffff;stroke-width:0.246958"
       id="rect3396-7-7-4-4-4"
       width="11.550668"
       height="11.550668"
       x="158.80345"
       y="17.159359"
       transform="matrix(0.65275326,0.75757058,-0.65275326,0.75757058,0,0)" />
    <rect
       style="fill:#ffffff;stroke-width:0.240325"
       id="rect3396-7-7-4-4-4-6"
       width="11.240427"
       height="11.240427"
       x="163.2307"
       y="14.845655"
       transform="matrix(0.77847983,0.62766962,-0.77847983,0.62766962,0,0)" />
    <rect
       style="fill:#ffffff;stroke-width:0.240325"
       id="rect3396-7-7-4-4-4-6-5"
       width="11.240427"
       height="11.240427"
       x="133.54488"
       y="44.615089"
       transform="matrix(0.77847983,0.62766962,-0.77847983,0.62766962,0,0)" />
    <rect
       style="fill:#ffffff;stroke-width:0.240325"
       id="rect3396-7-7-4-4-4-6-4"
       width="11.240427"
       height="11.240427"
       x="120.18454"
       y="-102.03542"
       transform="matrix(0.10663892,0.99429781,-0.99429781,-0.10663892,0,0)" />
    <rect
       style="fill:#ffffff;stroke-width:0.240325"
       id="rect3396-7-7-4-4-4-6-5-0"
       width="11.240427"
       height="11.240427"
       x="90.498718"
       y="-72.265991"
       transform="matrix(0.10663892,0.99429781,-0.99429781,-0.10663892,0,0)" />
    <rect
       style="fill:#ffffff;stroke-width:0.240325"
       id="rect3396-7-7-4-4-4-6-4-2"
       width="11.240427"
       height="11.240427"
       x="117.01138"
       y="111.32458"
       transform="matrix(0.99429781,-0.10663892,-0.10663892,0.99429781,0,0)" />
    <rect
       style="fill:#ffffff;stroke-width:0.240325"
       id="rect3396-7-7-4-4-4-6-5-0-5"
       width="11.240427"
       height="11.240427"
       x="87.325554"
       y="141.09401"
       transform="matrix(0.99429781,-0.10663892,-0.10663892,0.99429781,0,0)" />
    <circle
       style="fill:#000000;stroke-width:0.232284"
       id="path3340-6"
       cx="92.404327"
       cy="118.78477"
       r="21.954987" />
    <rect
       style="fill:#000000;stroke-width:0.216811"
       id="rect3396-7-7-4-4-2"
       width="10.140621"
       height="10.140621"
       x="131.24666"
       y="-11.280513"
       transform="matrix(0.65275326,0.75757058,-0.65275326,0.75757058,0,0)" />
    <rect
       style="fill:#000000;stroke-width:0.216811"
       id="rect3396-7-7-4-4-4-3"
       width="10.140621"
       height="10.140621"
       x="157.48871"
       y="16.057028"
       transform="matrix(0.65275326,0.75757058,-0.65275326,0.75757058,0,0)" />
    <rect
       style="fill:#000000;stroke-width:0.210988"
       id="rect3396-7-7-4-4-4-6-52"
       width="9.8682528"
       height="9.8682528"
       x="161.96906"
       y="17.377581"
       transform="matrix(0.77847983,0.62766962,-0.77847983,0.62766962,0,0)" />
    <rect
       style="fill:#000000;stroke-width:0.210988"
       id="rect3396-7-7-4-4-4-6-5-4"
       width="9.8682528"
       height="9.8682528"
       x="135.90714"
       y="43.512913"
       transform="matrix(0.77847983,0.62766962,-0.77847983,0.62766962,0,0)" />
    <rect
       style="fill:#000000;stroke-width:0.210988"
       id="rect3396-7-7-4-4-4-6-4-9"
       width="9.8682528"
       height="9.8682528"
       x="118.99036"
       y="-99.346184"
       transform="matrix(0.10663892,0.99429781,-0.99429781,-0.10663892,0,0)" />
    <rect
       style="fill:#000000;stroke-width:0.210988"
       id="rect3396-7-7-4-4-4-6-5-0-7"
       width="9.8682528"
       height="9.8682528"
       x="92.928436"
       y="-73.210846"
       transform="matrix(0.10663892,0.99429781,-0.99429781,-0.10663892,0,0)" />
    <rect
       style="fill:#000000;stroke-width:0.210988"
       id="rect3396-7-7-4-4-4-6-4-2-9"
       width="9.8682528"
       height="9.8682528"
       x="115.64579"
       y="113.64497"
       transform="matrix(0.99429781,-0.10663892,-0.10663892,0.99429781,0,0)" />
    <rect
       style="fill:#000000;stroke-width:0.210988"
       id="rect3396-7-7-4-4-4-6-5-0-5-5"
       width="9.8682528"
       height="9.8682528"
       x="89.583855"
       y="139.78033"
       transform="matrix(0.99429781,-0.10663892,-0.10663892,0.99429781,0,0)" />
    <ellipse
       style="fill:#ffffff;stroke-width:0.264583"
       id="path33341"
       cx="33.482609"
       cy="110.47438"
       rx="6.3805337"
       ry="6.0766988" />
  </g>
</svg>
